REM DIRINDEX 1\2,1\3,1\4,1\5,1\6
REM DIRNAME folder01,folder02,folder03,folder04,folder05,folder06
TITLE ""
FILE "DISC4Track12.mp3" MP3
  TRACK 01 AUDIO
    TITLE "0:"
    INDEX 01 00:00:00
  TRACK 02 AUDIO
    TITLE "3:cjc129_3222"
    INDEX 01 00:00:09
  TRACK 03 AUDIO
    TITLE "0:"
    INDEX 01 00:01:48
  TRACK 04 AUDIO
    TITLE "5:cjc129_3223"
    INDEX 01 00:02:02
  TRACK 05 AUDIO
    TITLE "0:"
    INDEX 01 00:04:15
  TRACK 06 AUDIO
    TITLE "4:cjc129_3224"
    INDEX 01 00:05:05
  TRACK 07 AUDIO
    TITLE "0:"
    INDEX 01 00:06:47
  TRACK 08 AUDIO
    TITLE "6:cjc129_3225"
    INDEX 01 00:07:02
  TRACK 09 AUDIO
    TITLE "0:"
    INDEX 01 00:12:24
  TRACK 10 AUDIO
    TITLE "3:cjc129_3226"
    INDEX 01 00:13:73
  TRACK 11 AUDIO
    TITLE "0:"
    INDEX 01 00:15:30
  TRACK 12 AUDIO
    TITLE "5:cjc129_3227"
    INDEX 01 00:15:62
  TRACK 13 AUDIO
    TITLE "0:"
    INDEX 01 00:18:31
  TRACK 14 AUDIO
    TITLE "4:cjc129_3228"
    INDEX 01 00:19:22
  TRACK 15 AUDIO
    TITLE "0:"
    INDEX 01 00:20:55
  TRACK 16 AUDIO
    TITLE "6:cjc129_3229"
    INDEX 01 00:21:15
  TRACK 17 AUDIO
    TITLE "0:"
    INDEX 01 00:25:11
  TRACK 18 AUDIO
    TITLE "3:cjc129_3230"
    INDEX 01 00:26:62
  TRACK 19 AUDIO
    TITLE "0:"
    INDEX 01 00:28:39
  TRACK 20 AUDIO
    TITLE "5:cjc129_3231"
    INDEX 01 00:28:68
  TRACK 21 AUDIO
    TITLE "0:"
    INDEX 01 00:31:45
  TRACK 22 AUDIO
    TITLE "4:cjc129_3232"
    INDEX 01 00:32:29
  TRACK 23 AUDIO
    TITLE "0:"
    INDEX 01 00:34:06
  TRACK 24 AUDIO
    TITLE "6:cjc129_3233"
    INDEX 01 00:34:36
  TRACK 25 AUDIO
    TITLE "0:"
    INDEX 01 00:38:47
  TRACK 26 AUDIO
    TITLE "3:cjc129_3234"
    INDEX 01 00:40:21
  TRACK 27 AUDIO
    TITLE "0:"
    INDEX 01 00:41:69
  TRACK 28 AUDIO
    TITLE "5:cjc129_3235"
    INDEX 01 00:42:25
  TRACK 29 AUDIO
    TITLE "0:"
    INDEX 01 00:44:30
  TRACK 30 AUDIO
    TITLE "4:cjc129_3236"
    INDEX 01 00:45:20
  TRACK 31 AUDIO
    TITLE "0:"
    INDEX 01 00:46:68
  TRACK 32 AUDIO
    TITLE "6:cjc129_3237"
    INDEX 01 00:47:23
  TRACK 33 AUDIO
    TITLE "0:"
    INDEX 01 00:52:55
  TRACK 34 AUDIO
    TITLE "2:cjc129_3238"
    INDEX 01 00:54:29
  TRACK 35 AUDIO
    TITLE "0:"
    INDEX 01 00:57:09
  TRACK 36 AUDIO
    TITLE "3:cjc129_3239"
    INDEX 01 00:58:20
  TRACK 37 AUDIO
    TITLE "0:"
    INDEX 01 00:59:43
  TRACK 38 AUDIO
    TITLE "5:cjc129_3240"
    INDEX 01 01:01:13
  TRACK 39 AUDIO
    TITLE "0:"
    INDEX 01 01:03:51
  TRACK 40 AUDIO
    TITLE "4:cjc129_3241"
    INDEX 01 01:04:41
  TRACK 41 AUDIO
    TITLE "0:"
    INDEX 01 01:05:62
  TRACK 42 AUDIO
    TITLE "6:cjc129_3242"
    INDEX 01 01:06:20
  TRACK 43 AUDIO
    TITLE "0:"
    INDEX 01 01:10:12
  TRACK 44 AUDIO
    TITLE "3:cjc129_3243"
    INDEX 01 01:11:64
  TRACK 45 AUDIO
    TITLE "0:"
    INDEX 01 01:13:12
  TRACK 46 AUDIO
    TITLE "5:cjc129_3244"
    INDEX 01 01:14:45
  TRACK 47 AUDIO
    TITLE "0:"
    INDEX 01 01:16:42
  TRACK 48 AUDIO
    TITLE "4:cjc129_3245"
    INDEX 01 01:17:35
  TRACK 49 AUDIO
    TITLE "0:"
    INDEX 01 01:18:58
  TRACK 50 AUDIO
    TITLE "6:cjc129_3246"
    INDEX 01 01:19:13
  TRACK 51 AUDIO
    TITLE "0:"
    INDEX 01 01:22:68
  TRACK 52 AUDIO
    TITLE "3:cjc129_3247"
    INDEX 01 01:24:43
  TRACK 53 AUDIO
    TITLE "0:"
    INDEX 01 01:25:66
  TRACK 54 AUDIO
    TITLE "5:cjc129_3248"
    INDEX 01 01:27:32
  TRACK 55 AUDIO
    TITLE "0:"
    INDEX 01 01:29:03
  TRACK 56 AUDIO
    TITLE "4:cjc129_3249"
    INDEX 01 01:29:64
  TRACK 57 AUDIO
    TITLE "0:"
    INDEX 01 01:31:12
  TRACK 58 AUDIO
    TITLE "6:cjc129_3250"
    INDEX 01 01:31:43
  TRACK 59 AUDIO
    TITLE "0:"
    INDEX 01 01:35:71
